<mxfile host="app.diagrams.net" modified="2022-04-25T18:25:46.864Z" agent="5.0 (Windows NT 10.0; Win64; x64) AppleWebKit/537.36 (KHTML, like Gecko) Chrome/100.0.4896.127 Safari/537.36" etag="C_lGBnsSonlyel26XkVp" version="17.1.3" type="github">
  <diagram id="ePoFA7r4-F2m1NP0ZcRN" name="Page-1">
    <mxGraphModel dx="868" dy="450" grid="1" gridSize="10" guides="1" tooltips="1" connect="1" arrows="1" fold="1" page="1" pageScale="1" pageWidth="827" pageHeight="1169" math="0" shadow="0">
      <root>
        <mxCell id="0" />
        <mxCell id="1" parent="0" />
        <mxCell id="lSMNA3O5AHTe4wELde9E-1" value="&lt;span style=&quot;color: rgb(33 , 37 , 41) ; font-family: &amp;#34;arial&amp;#34; , &amp;#34;helvetica neue&amp;#34; , sans-serif ; text-align: left ; background-color: rgb(255 , 255 , 255)&quot;&gt;&lt;font style=&quot;font-size: 11px&quot;&gt;ru.job4j.tracker.StartUI&lt;/font&gt;&lt;/span&gt;" style="ellipse;whiteSpace=wrap;html=1;" vertex="1" parent="1">
          <mxGeometry x="350" y="190" width="120" height="80" as="geometry" />
        </mxCell>
        <mxCell id="lSMNA3O5AHTe4wELde9E-2" value="" style="endArrow=classic;html=1;rounded=0;entryX=0.5;entryY=0;entryDx=0;entryDy=0;" edge="1" parent="1" target="lSMNA3O5AHTe4wELde9E-1">
          <mxGeometry width="50" height="50" relative="1" as="geometry">
            <mxPoint x="410" y="130" as="sourcePoint" />
            <mxPoint x="410" y="180" as="targetPoint" />
            <Array as="points" />
          </mxGeometry>
        </mxCell>
        <mxCell id="lSMNA3O5AHTe4wELde9E-3" value="&lt;span style=&quot;color: rgb(33 , 37 , 41) ; font-family: &amp;#34;arial&amp;#34; , &amp;#34;helvetica neue&amp;#34; , sans-serif ; text-align: left ; background-color: rgb(255 , 255 , 255)&quot;&gt;&lt;font style=&quot;font-size: 13px&quot;&gt;java.util.Scanner&lt;/font&gt;&lt;/span&gt;" style="ellipse;whiteSpace=wrap;html=1;" vertex="1" parent="1">
          <mxGeometry x="350" y="50" width="120" height="80" as="geometry" />
        </mxCell>
        <mxCell id="lSMNA3O5AHTe4wELde9E-4" value="&lt;span style=&quot;color: rgb(33 , 37 , 41) ; font-family: &amp;#34;arial&amp;#34; , &amp;#34;helvetica neue&amp;#34; , sans-serif ; text-align: left ; background-color: rgb(255 , 255 , 255)&quot;&gt;&lt;font style=&quot;font-size: 11px&quot;&gt;ru.job4j.tracker.Tracker&lt;/font&gt;&lt;/span&gt;" style="ellipse;whiteSpace=wrap;html=1;" vertex="1" parent="1">
          <mxGeometry x="500" y="300" width="120" height="80" as="geometry" />
        </mxCell>
        <mxCell id="lSMNA3O5AHTe4wELde9E-5" value="&lt;span style=&quot;color: rgb(33 , 37 , 41) ; font-family: &amp;#34;arial&amp;#34; , &amp;#34;helvetica neue&amp;#34; , sans-serif ; text-align: left ; background-color: rgb(255 , 255 , 255)&quot;&gt;&lt;font style=&quot;font-size: 12px&quot;&gt;ru.job4j.tracker.Item&lt;/font&gt;&lt;/span&gt;" style="ellipse;whiteSpace=wrap;html=1;" vertex="1" parent="1">
          <mxGeometry x="210" y="290" width="120" height="80" as="geometry" />
        </mxCell>
        <mxCell id="lSMNA3O5AHTe4wELde9E-6" value="" style="endArrow=classic;html=1;rounded=0;exitX=0.075;exitY=0.175;exitDx=0;exitDy=0;exitPerimeter=0;" edge="1" parent="1" source="lSMNA3O5AHTe4wELde9E-4">
          <mxGeometry width="50" height="50" relative="1" as="geometry">
            <mxPoint x="420" y="140" as="sourcePoint" />
            <mxPoint x="460" y="250" as="targetPoint" />
            <Array as="points" />
          </mxGeometry>
        </mxCell>
        <mxCell id="lSMNA3O5AHTe4wELde9E-7" value="" style="endArrow=classic;html=1;rounded=0;entryX=0;entryY=1;entryDx=0;entryDy=0;exitX=1;exitY=0;exitDx=0;exitDy=0;" edge="1" parent="1" source="lSMNA3O5AHTe4wELde9E-5" target="lSMNA3O5AHTe4wELde9E-1">
          <mxGeometry width="50" height="50" relative="1" as="geometry">
            <mxPoint x="536.9643152503716" y="316.6090928337089" as="sourcePoint" />
            <mxPoint x="476.03999999999996" y="256" as="targetPoint" />
            <Array as="points" />
          </mxGeometry>
        </mxCell>
      </root>
    </mxGraphModel>
  </diagram>
</mxfile>
